<?xml version="1.0" encoding="UTF-8"?>
<svg xmlns="http://www.w3.org/2000/svg" width="1720" height="660" viewBox="0 0 1720 660" font-family="ui-sans-serif, system-ui, -apple-system, 'Segoe UI', Roboto, 'Helvetica Neue', Arial, sans-serif" style="background:#000000">
  <defs>
    <marker id="ah-solid" markerWidth="9" markerHeight="9" refX="8" refY="3" orient="auto"><path d="M0,0 L0,6 L8,3 z" fill="#e2e8f0"/></marker>
    <marker id="ah-thin" markerWidth="9" markerHeight="9" refX="8" refY="3" orient="auto"><path d="M0,0 L0,6 L8,3 z" fill="#9ca3af"/></marker>
    <marker id="ah-stream" markerWidth="9" markerHeight="9" refX="8" refY="3" orient="auto"><path d="M0,0 L0,6 L8,3 z" fill="#d9f99d"/></marker>
    <marker id="ah-axil" markerWidth="9" markerHeight="9" refX="8" refY="3" orient="auto"><path d="M0,0 L0,6 L8,3 z" fill="#93c5fd"/></marker>
    <marker id="ah-cdc" markerWidth="9" markerHeight="9" refX="8" refY="3" orient="auto"><path d="M0,0 L0,6 L8,3 z" fill="#d8b4fe"/></marker>
    <marker id="ah-open" markerWidth="9" markerHeight="9" refX="8" refY="3" orient="auto"><path d="M0.5,0.5 L0.5,5.5 L8,3 z" fill="#000000" stroke="#e2e8f0" stroke-width="1"/></marker>
    <linearGradient id="grad-spwxmit" x1="0%" y1="0%" x2="100%" y2="0%"><stop offset="50%" stop-color="#42A5F5"/><stop offset="50%" stop-color="#66BB6A"/></linearGradient>
    <linearGradient id="grad-recvfront" x1="0%" y1="0%" x2="100%" y2="0%"><stop offset="50%" stop-color="#FFA726"/><stop offset="50%" stop-color="#42A5F5"/></linearGradient>
  </defs>
  <rect width="1720" height="660" fill="#000000" id="_canvas_bg"/>
  <text x="860.0" y="24" text-anchor="middle" font-size="17" font-weight="600" fill="#e2e8f0" letter-spacing="0.2">spwstream - SpaceWire Light top level</text>
  <rect id="host" x="40" y="250" width="240" height="100" fill="#374151" stroke="#9ca3af" stroke-width="1.4" rx="8"/>
  <text x="160" y="298" text-anchor="middle" font-size="14" font-weight="600" fill="#e2e8f0">Host FIFO IF</text>
  <text x="160" y="314" text-anchor="middle" font-size="11" font-style="italic" fill="#e2e8f0" opacity="0.85">tx/rx data + ctrl/status</text>
  <rect id="txmem" x="390" y="70" width="240" height="100" fill="#42A5F5" stroke="#0D47A1" stroke-width="1.4" rx="8"/>
  <text x="510" y="118" text-anchor="middle" font-size="14" font-weight="600" fill="#1f2937">txmem</text>
  <text x="510" y="134" text-anchor="middle" font-size="11" font-style="italic" fill="#1f2937" opacity="0.85">spwram (TX FIFO)</text>
  <rect id="rxmem" x="390" y="430" width="240" height="100" fill="#42A5F5" stroke="#0D47A1" stroke-width="1.4" rx="8"/>
  <text x="510" y="478" text-anchor="middle" font-size="14" font-weight="600" fill="#1f2937">rxmem</text>
  <text x="510" y="494" text-anchor="middle" font-size="11" font-style="italic" fill="#1f2937" opacity="0.85">spwram (RX FIFO)</text>
  <rect id="spwlink" x="740" y="250" width="240" height="100" fill="#42A5F5" stroke="#0D47A1" stroke-width="1.4" rx="8"/>
  <text x="860" y="298" text-anchor="middle" font-size="14" font-weight="600" fill="#1f2937">spwlink</text>
  <text x="860" y="314" text-anchor="middle" font-size="11" font-style="italic" fill="#1f2937" opacity="0.85">link FSM / exchange</text>
  <rect id="spwxmit" x="1090" y="70" width="240" height="100" fill="url(#grad-spwxmit)" stroke="#4b5563" stroke-width="1.4" rx="8"/>
  <text x="1210" y="118" text-anchor="middle" font-size="14" font-weight="600" fill="#1f2937">spwxmit_fast</text>
  <text x="1210" y="134" text-anchor="middle" font-size="11" font-style="italic" fill="#1f2937" opacity="0.85">sys / tx CDC</text>
  <rect id="spwrecv" x="1090" y="250" width="240" height="100" fill="#42A5F5" stroke="#0D47A1" stroke-width="1.4" rx="8"/>
  <text x="1210" y="298" text-anchor="middle" font-size="14" font-weight="600" fill="#1f2937">spwrecv</text>
  <text x="1210" y="314" text-anchor="middle" font-size="11" font-style="italic" fill="#1f2937" opacity="0.85">char decoder</text>
  <rect id="recvfront" x="1090" y="430" width="240" height="100" fill="url(#grad-recvfront)" stroke="#4b5563" stroke-width="1.4" rx="8"/>
  <text x="1210" y="478" text-anchor="middle" font-size="14" font-weight="600" fill="#1f2937">spwrecvfront_fast</text>
  <text x="1210" y="494" text-anchor="middle" font-size="11" font-style="italic" fill="#1f2937" opacity="0.85">rx / sys CDC</text>
  <rect id="spw_tx" x="1440" y="70" width="240" height="100" fill="#374151" stroke="#9ca3af" stroke-width="1.4" rx="8"/>
  <text x="1560" y="118" text-anchor="middle" font-size="14" font-weight="600" fill="#e2e8f0">SpW DO/SO</text>
  <text x="1560" y="134" text-anchor="middle" font-size="11" font-style="italic" fill="#e2e8f0" opacity="0.85">data-strobe out</text>
  <rect id="spw_rx" x="1440" y="430" width="240" height="100" fill="#374151" stroke="#9ca3af" stroke-width="1.4" rx="8"/>
  <text x="1560" y="478" text-anchor="middle" font-size="14" font-weight="600" fill="#e2e8f0">SpW DI/SI</text>
  <text x="1560" y="494" text-anchor="middle" font-size="11" font-style="italic" fill="#e2e8f0" opacity="0.85">data-strobe in</text>
  <path id="edge_host_to_txmem" d="M 280.0,275.0 L 320.0,275.0 L 320.0,120.0 L 390.0,120.0" stroke="#9ca3af" stroke-width="1.4" fill="none" marker-end="url(#ah-thin)"/>
  <rect x="310.9" y="182.2" width="18.1" height="15.0" fill="#1f2937" stroke="#4b5563" stroke-width="0.6" rx="3"/>
  <text x="320.0" y="193.5" text-anchor="middle" font-size="11" fill="#e2e8f0">9b</text>
  <path id="edge_rxmem_to_host" d="M 390.0,480.0 L 350.0,480.0 L 350.0,300.0 L 280.0,300.0" stroke="#9ca3af" stroke-width="1.4" fill="none" marker-end="url(#ah-thin)"/>
  <rect x="340.9" y="374.6" width="18.1" height="15.0" fill="#1f2937" stroke="#4b5563" stroke-width="0.6" rx="3"/>
  <text x="350.0" y="386.0" text-anchor="middle" font-size="11" fill="#e2e8f0">9b</text>
  <path id="edge_host_to_spwlink" d="M 280.0,325.0 L 510.0,325.0 L 510.0,275.0 L 740.0,275.0" stroke="#9ca3af" stroke-width="1.4" fill="none" marker-end="url(#ah-thin)"/>
  <rect x="482.8" y="284.6" width="54.4" height="15.0" fill="#1f2937" stroke="#4b5563" stroke-width="0.6" rx="3"/>
  <text x="510.0" y="296.0" text-anchor="middle" font-size="11" fill="#e2e8f0">ctrl/sts</text>
  <path id="edge_txmem_to_spwlink" d="M 630.0,120.0 L 670.0,120.0 L 670.0,300.0 L 740.0,300.0" stroke="#9ca3af" stroke-width="1.4" fill="none" marker-end="url(#ah-thin)"/>
  <rect x="661.0" y="194.7" width="18.1" height="15.0" fill="#1f2937" stroke="#4b5563" stroke-width="0.6" rx="3"/>
  <text x="670.0" y="206.0" text-anchor="middle" font-size="11" fill="#e2e8f0">9b</text>
  <path id="edge_spwlink_to_rxmem" d="M 740.0,325.0 L 700.0,325.0 L 700.0,480.0 L 630.0,480.0" stroke="#9ca3af" stroke-width="1.4" fill="none" marker-end="url(#ah-thin)"/>
  <rect x="691.0" y="387.1" width="18.1" height="15.0" fill="#1f2937" stroke="#4b5563" stroke-width="0.6" rx="3"/>
  <text x="700.0" y="398.5" text-anchor="middle" font-size="11" fill="#e2e8f0">9b</text>
  <path id="edge_spwlink_to_spwxmit" d="M 980.0,283.3 L 1020.0,283.3 L 1020.0,120.0 L 1090.0,120.0" stroke="#9ca3af" stroke-width="1.4" fill="none" marker-end="url(#ah-thin)"/>
  <rect x="995.8" y="186.3" width="48.4" height="15.0" fill="#1f2937" stroke="#4b5563" stroke-width="0.6" rx="3"/>
  <text x="1020.0" y="197.7" text-anchor="middle" font-size="11" fill="#e2e8f0">tx ctrl</text>
  <path id="edge_spwrecv_to_spwlink" d="M 1090.0,300.0 L 1050.0,300.0 L 1050.0,316.7 L 980.0,316.7" stroke="#9ca3af" stroke-width="1.4" fill="none" marker-end="url(#ah-thin)"/>
  <rect x="1028.8" y="293.0" width="42.3" height="15.0" fill="#1f2937" stroke="#4b5563" stroke-width="0.6" rx="3"/>
  <text x="1050.0" y="304.3" text-anchor="middle" font-size="11" fill="#e2e8f0">rx bus</text>
  <path id="edge_recvfront_to_spwrecv" d="M 1210.0,430.0 L 1210.0,390.0 L 1210.0,390.0 L 1210.0,350.0" stroke="#9ca3af" stroke-width="1.4" fill="none" marker-end="url(#ah-thin)"/>
  <rect x="1185.8" y="374.6" width="48.4" height="15.0" fill="#1f2937" stroke="#4b5563" stroke-width="0.6" rx="3"/>
  <text x="1210.0" y="386.0" text-anchor="middle" font-size="11" fill="#e2e8f0">RXCHUNK</text>
  <path id="edge_spwxmit_to_spw_tx" d="M 1330.0,120.0 L 1385.0,120.0 L 1385.0,120.0 L 1440.0,120.0" stroke="#9ca3af" stroke-width="1.4" fill="none" marker-end="url(#ah-thin)"/>
  <rect x="1376.0" y="104.7" width="18.1" height="15.0" fill="#1f2937" stroke="#4b5563" stroke-width="0.6" rx="3"/>
  <text x="1385.0" y="116.0" text-anchor="middle" font-size="11" fill="#e2e8f0">2b</text>
  <path id="edge_spw_rx_to_recvfront" d="M 1440.0,480.0 L 1385.0,480.0 L 1385.0,480.0 L 1330.0,480.0" stroke="#9ca3af" stroke-width="1.4" fill="none" marker-end="url(#ah-thin)"/>
  <rect x="1376.0" y="464.6" width="18.1" height="15.0" fill="#1f2937" stroke="#4b5563" stroke-width="0.6" rx="3"/>
  <text x="1385.0" y="476.0" text-anchor="middle" font-size="11" fill="#e2e8f0">2b</text>
  <text x="40" y="580" font-size="11" font-weight="600" fill="#9ca3af" letter-spacing="0.5">CLOCK DOMAINS</text>
  <rect x="40" y="594" width="18" height="14" fill="#42A5F5" stroke="#0D47A1" stroke-width="0.8" rx="3"/>
  <text x="64" y="605" font-size="11" fill="#e2e8f0">sys  100 MHz</text>
  <rect x="170" y="594" width="18" height="14" fill="#FFA726" stroke="#E65100" stroke-width="0.8" rx="3"/>
  <text x="194" y="605" font-size="11" fill="#e2e8f0">rx  200 MHz</text>
  <rect x="293" y="594" width="18" height="14" fill="#66BB6A" stroke="#1B5E20" stroke-width="0.8" rx="3"/>
  <text x="317" y="605" font-size="11" fill="#e2e8f0">tx  200 MHz</text>
  <text x="40" y="630" font-size="11" font-weight="600" fill="#9ca3af" letter-spacing="0.5">CONNECTION STYLES</text>
  <path id="legend-arrow-generic" d="M 40,651 L 76,651" stroke="#9ca3af" stroke-width="1.4" fill="none" marker-end="url(#ah-thin)"/>
  <text x="86" y="655" font-size="11" fill="#e2e8f0">Generic / discrete</text>
</svg>